<svg width="20" height="24" viewBox="0 0 20 24" fill="none" xmlns="http://www.w3.org/2000/svg">
<path d="M19.684 17.7925V5.72534L0.315918 6.55587V18.623C0.315871 18.8995 0.452699 19.176 0.726355 19.334L8.39886 23.7637C8.94453 24.0788 9.61681 24.0788 10.1625 23.7637L19.2735 18.5035C19.5472 18.3455 19.6841 18.069 19.684 17.7925Z" fill="url(#paint0_linear)"/>
<path d="M0.726361 5.84494L9.83741 0.584674C10.3831 0.269627 11.0554 0.269627 11.601 0.584674L19.2735 5.01441C19.8208 5.33039 19.8208 6.12033 19.2735 6.43627L10.1625 11.6965C9.61686 12.0115 8.94458 12.0115 8.39891 11.6965L0.726408 7.2668C0.179096 6.95081 0.179096 6.16088 0.726361 5.84494Z" fill="url(#paint1_linear)"/>
<path d="M3.68042 4.13931L13.4661 9.78911L16.0619 8.29042L6.27617 2.64062L3.68042 4.13931Z" fill="#FF4757"/>
<path d="M13.4663 9.78897V21.8398L16.0621 20.3411V8.29028L13.4663 9.78897Z" fill="#AB2C37"/>
<path d="M17.0845 3.74747L5.85117 10.239L3.25537 8.74031L14.4887 2.24878L17.0845 3.74747Z" fill="#FF4757"/>
<path d="M5.85117 10.2389V22.2897L3.25537 20.791V8.74023L5.85117 10.2389Z" fill="#AB2C37"/>
<path d="M10.9975 4.98215C10.8564 4.80768 10.8143 4.574 10.8849 4.36105C11.2376 3.29736 12.2366 0.573785 13.9011 0.0692699C15.4565 -0.402152 17.4141 1.61811 16.1737 3.53647C15.1859 5.06399 12.844 5.51422 11.9307 5.63432C11.7029 5.66427 11.4764 5.57465 11.332 5.396L10.9975 4.98215Z" fill="url(#paint2_linear)"/>
<path d="M15.0706 2.26001C15.8036 1.85895 16.1899 2.31617 15.9395 3.056C15.6892 3.79583 14.4083 4.50101 13.6476 4.87315C12.887 5.24529 11.8425 5.37964 11.8425 5.37964C11.8425 5.37964 14.3376 2.66112 15.0706 2.26001Z" fill="#AB2C37"/>
<path d="M11.9598 3.33818C11.5233 3.28287 11.1504 3.35426 10.8512 3.50796V3.50801C10.8048 3.53182 10.7603 3.55765 10.7175 3.58526L8.7767 4.70641L8.77731 4.70749C8.4355 4.87948 8.13048 5.19045 7.93173 5.6637C7.73003 7.23884 9.187 8.00299 10.23 7.40079L12.315 6.19704C13.3579 5.59488 13.4247 3.95112 11.9598 3.33818Z" fill="url(#paint3_linear)"/>
<path d="M9.08604 5.78188C8.96698 5.59175 8.75969 5.47593 8.53535 5.47339C7.4148 5.46079 4.51437 5.51929 3.49573 6.92914C2.54388 8.24652 3.81734 10.755 6.0349 10.2062C7.80068 9.76916 8.9884 7.70108 9.39907 6.87655C9.50149 6.67096 9.49043 6.42758 9.36851 6.23291L9.08604 5.78188Z" fill="url(#paint4_linear)"/>
<path d="M5.18675 8.74763C4.56903 9.31022 4.87569 9.8243 5.65672 9.82828C6.43775 9.83227 7.52131 8.85052 8.1207 8.2523C8.72009 7.65408 9.18692 6.71021 9.18692 6.71021C9.18692 6.71021 5.80452 8.18503 5.18675 8.74763Z" fill="#AB2C37"/>
<defs>
<linearGradient id="paint0_linear" x1="7.73267" y1="14.8627" x2="10.3932" y2="14.8627" gradientUnits="userSpaceOnUse">
<stop stop-color="#CC8241"/>
<stop offset="1" stop-color="#DEA861"/>
</linearGradient>
<linearGradient id="paint1_linear" x1="4.60789" y1="3.02747" x2="14.5716" y2="8.78001" gradientUnits="userSpaceOnUse">
<stop stop-color="#DEA861"/>
<stop offset="1" stop-color="#EBCBA0"/>
</linearGradient>
<linearGradient id="paint2_linear" x1="13.0906" y1="4.41444" x2="14.7917" y2="1.46802" gradientUnits="userSpaceOnUse">
<stop stop-color="#AB2C37"/>
<stop offset="1" stop-color="#FF7A85"/>
</linearGradient>
<linearGradient id="paint3_linear" x1="10.9836" y1="6.29857" x2="9.9948" y2="4.58595" gradientUnits="userSpaceOnUse">
<stop stop-color="#AB2C37"/>
<stop offset="1" stop-color="#FF7A85"/>
</linearGradient>
<linearGradient id="paint4_linear" x1="9.66523" y1="7.02177" x2="3.6693" y2="8.51118" gradientUnits="userSpaceOnUse">
<stop stop-color="#AB2C37"/>
<stop offset="1" stop-color="#FF7A85"/>
</linearGradient>
</defs>
</svg>
