<svg width="10" height="14" viewBox="0 0 10 14" fill="none" xmlns="http://www.w3.org/2000/svg">
    <path d="M9.1044 2.96044C8.1955 1.57545 6.69509 0.796387 5.00712 0.796387C3.33358 0.796387 1.83317 1.57545 0.895412 2.96044C-0.0423467 4.31659 -0.258752 6.04783 0.318329 7.56267C0.477027 7.96663 0.722287 8.38501 1.03968 8.76012L4.68973 13.0594C4.77629 13.1459 4.86285 13.2036 4.99269 13.2036C5.12254 13.2036 5.2091 13.1459 5.29566 13.0594L8.96013 8.76012C9.27753 8.38501 9.53721 7.98106 9.68148 7.56267C10.2586 6.04783 10.0422 4.31659 9.1044 2.96044ZM5.00712 8.06762C3.76639 8.06762 2.74207 7.0433 2.74207 5.80257C2.74207 4.56185 3.76639 3.53753 5.00712 3.53753C6.24785 3.53753 7.27217 4.56185 7.27217 5.80257C7.27217 7.0433 6.26227 8.06762 5.00712 8.06762Z"
          fill="#C62734"/>
</svg>
