<svg width="13" height="24" viewBox="0 0 13 24" fill="none" xmlns="http://www.w3.org/2000/svg">
    <path d="M10.9844 18V3.98438H1.98438V18H10.9844ZM5.40625 21.5625C5.71875 21.8438 6.07812 21.9844 6.48438 21.9844C6.89062 21.9844 7.23438 21.8438 7.51562 21.5625C7.82812 21.25 7.98438 20.8906 7.98438 20.4844C7.98438 20.0781 7.82812 19.7344 7.51562 19.4531C7.23438 19.1406 6.89062 18.9844 6.48438 18.9844C6.07812 18.9844 5.71875 19.1406 5.40625 19.4531C5.125 19.7344 4.98438 20.0781 4.98438 20.4844C4.98438 20.8906 5.125 21.25 5.40625 21.5625ZM10.5156 0.984375C11.2031 0.984375 11.7812 1.23438 12.25 1.73438C12.75 2.23438 13 2.82812 13 3.51562V20.4844C13 21.1719 12.75 21.7656 12.25 22.2656C11.7812 22.7656 11.2031 23.0156 10.5156 23.0156H2.5C1.8125 23.0156 1.21875 22.7656 0.71875 22.2656C0.25 21.7656 0.015625 21.1719 0.015625 20.4844V3.51562C0.015625 2.82812 0.25 2.23438 0.71875 1.73438C1.21875 1.23438 1.8125 0.984375 2.5 0.984375H10.5156Z" fill="black"/>
</svg>
