<svg
        fill="#777"
        height="20"
        viewBox="0 0 14 20"
        width="14"
        xmlns="http://www.w3.org/2000/svg"
>
    <path d="M7.00015 0.5625C2.77889 0.5625 0.259033 3.33444 0.259033 7.97771C0.259033 13.043 6.27211 18.994 6.52826 19.2448C6.79038 19.5017 7.20989 19.5017 7.47201 19.2448C7.72815 18.994 13.7412 13.043 13.7412 7.97771C13.7413 3.33444 11.2215 0.5625 7.00015 0.5625ZM7.00015 10C5.13866 10 3.62961 8.49099 3.62961 6.6295C3.62961 4.768 5.13866 3.25896 7.00015 3.25896C8.86165 3.25896 10.3707 4.768 10.3707 6.6295C10.3685 8.49008 8.86074 9.99782 7.00015 10Z" />
</svg>