<svg
        fill="var(--current-color)"
        height="20"
        viewBox="0 0 20 20"
        width="20"
        xmlns="http://www.w3.org/2000/svg"
>
    <path
            d="M13.9766 8.65991C12.7935 9.52885 11.1831 9.52885 10 8.65991C8.81691 9.52885 7.20655 9.52885 6.02344 8.65991C4.85175 9.56307 3.21856 9.56307 2.04688 8.65991C2.04688 8.66523 2.04688 8.66919 2.04688 8.67447V17.2904C2.04688 18.3885 2.93706 19.2787 4.03516 19.2787H7.34895V11.9883C7.34895 11.6222 7.64568 11.3255 8.01173 11.3255H11.9883C12.3543 11.3255 12.6511 11.6222 12.6511 11.9883V19.2786H15.9649C17.063 19.2786 17.9531 18.3884 17.9531 17.2903V8.67447C17.9531 8.66915 17.9531 8.66519 17.9531 8.65991C16.7815 9.56307 15.1483 9.56307 13.9766 8.65991Z"
    />
    <path
            d="M2.04688 6.02344C2.04688 7.12154 2.93706 8.01172 4.03516 8.01172C4.60831 8.01137 5.15256 7.75996 5.52439 7.32378C5.78376 7.04818 6.2175 7.03498 6.4931 7.29439C6.50319 7.3039 6.51302 7.31369 6.5225 7.32378C7.2594 8.14628 8.52356 8.2156 9.34605 7.47869C9.4005 7.42992 9.45219 7.37823 9.50096 7.32378C9.76033 7.04818 10.1941 7.03498 10.4697 7.29439C10.4798 7.3039 10.4896 7.31369 10.4991 7.32378C11.236 8.14628 12.5001 8.2156 13.3226 7.47869C13.377 7.42992 13.4288 7.37823 13.4775 7.32378C13.7369 7.04818 14.1706 7.03498 14.4462 7.29439C14.4563 7.3039 14.4662 7.31369 14.4756 7.32378C14.8475 7.75996 15.3917 8.01137 15.9649 8.01172C17.063 8.01172 17.9531 7.12154 17.9531 6.02344H2.04688Z"
    />
    <path
            d="M2.70961 0.721314C2.42422 0.721236 2.17083 0.903871 2.08066 1.17466L0.90625 4.69788H5.36067V0.721314H2.70961Z"
    />
    <path
            d="M9.33709 0.721313H6.68604V4.69788H9.33709V0.721313Z"
    />
    <path
            d="M17.9194 1.17466C17.8292 0.903871 17.5759 0.721236 17.2905 0.721314H14.6394V4.69788H19.0938L17.9194 1.17466Z"
    />
    <path
            d="M13.3139 0.721313H10.6628V4.69788H13.3139V0.721313Z"
    />
</svg>