<svg width="32" height="32" viewBox="0 0 32 32" fill="none" xmlns="http://www.w3.org/2000/svg">
    <path d="M0 16C0 7.16344 7.16344 0 16 0C24.8366 0 32 7.16344 32 16C32 24.8366 24.8366 32 16 32C7.16344 32 0 24.8366 0 16Z" fill="url(#paint0_linear)"/>
    <g clip-path="url(#clip0)">
        <path d="M21.9658 17.3678C21.7825 14.9816 20.6715 13.4862 19.6914 12.1667C18.7838 10.945 18 9.89009 18 8.3339C18 8.2089 17.93 8.09465 17.819 8.03737C17.7077 7.97975 17.5739 7.98919 17.4727 8.06275C16.0007 9.11606 14.7725 10.8913 14.3434 12.5852C14.0456 13.7645 14.0062 15.0902 14.0007 15.9658C12.6413 15.6755 12.3333 13.6421 12.3301 13.62C12.3148 13.5145 12.2503 13.4227 12.1566 13.3726C12.0619 13.3231 11.9505 13.3195 11.8545 13.3671C11.7832 13.4016 10.1048 14.2544 10.0072 17.6594C10.0003 17.7727 10 17.8863 10 17.9999C10 21.3079 12.6917 23.9995 16 23.9995C16.0046 23.9998 16.0094 24.0005 16.0133 23.9995H16.0176C19.3177 23.99 22 21.3021 22 17.9999C22 17.8336 21.9658 17.3678 21.9658 17.3678ZM16 23.3329C14.8971 23.3329 14 22.3772 14 21.2025C14 21.1625 13.9997 21.1221 14.0026 21.0726C14.0159 20.5772 14.11 20.239 14.2132 20.0141C14.4066 20.4294 14.7523 20.8112 15.3138 20.8112C15.4981 20.8112 15.6472 20.6622 15.6472 20.4779C15.6472 20.0034 15.6569 19.4559 15.7751 18.9617C15.8802 18.5236 16.1315 18.0575 16.4499 17.6838C16.5915 18.1688 16.8676 18.5614 17.1371 18.9445C17.5228 19.4926 17.9216 20.0593 17.9916 21.0257C17.9958 21.083 18.0001 21.1407 18.0001 21.2025C18 22.3772 17.1029 23.3329 16 23.3329Z" fill="white"/>
    </g>
    <defs>
        <linearGradient id="paint0_linear" x1="16" y1="0" x2="16" y2="32" gradientUnits="userSpaceOnUse">
            <stop stop-color="#E33151"/>
            <stop offset="1" stop-color="#AB1818"/>
        </linearGradient>
        <clipPath id="clip0">
            <rect width="16" height="16" fill="white" transform="translate(8 8)"/>
        </clipPath>
    </defs>
</svg>
