<svg
        fill="var(--current-color)"
        height="22"
        viewBox="0 0 22 22"
        width="22"
        xmlns="http://www.w3.org/2000/svg"
>
    <path d="M11.0176 0.613174C5.28764 0.603491 0.634698 5.24072 0.625015 10.9707C0.620238 13.8035 1.77393 16.515 3.81831 18.4759C3.82426 18.4818 3.82647 18.4907 3.83238 18.4959C3.89239 18.5537 3.95761 18.6026 4.0184 18.6582C4.18514 18.8064 4.35189 18.9598 4.52753 19.1028C4.62163 19.177 4.71946 19.251 4.81581 19.3192C4.98182 19.443 5.14782 19.5667 5.32121 19.6809C5.43906 19.755 5.5606 19.8291 5.68135 19.9032C5.84141 19.9996 6.00077 20.0966 6.16604 20.1848C6.30612 20.2589 6.44911 20.3226 6.5914 20.3901C6.74703 20.4642 6.90044 20.5383 7.05976 20.605C7.21908 20.6717 7.37918 20.7235 7.54071 20.7813C7.70224 20.8391 7.84158 20.8925 7.99647 20.9399C8.17138 20.9925 8.35071 21.0333 8.52857 21.077C8.67677 21.1133 8.82054 21.1548 8.97322 21.1845C9.17774 21.2253 9.38525 21.2512 9.59277 21.2794C9.721 21.2972 9.84623 21.3223 9.97589 21.3349C10.3153 21.3683 10.6577 21.3868 11.003 21.3868C11.3483 21.3868 11.6907 21.3683 12.0301 21.3349C12.1598 21.3223 12.2851 21.2972 12.4132 21.2794C12.6208 21.2512 12.8282 21.2253 13.0328 21.1845C13.181 21.1548 13.3292 21.1104 13.4774 21.077C13.6553 21.0333 13.8346 20.9925 14.0095 20.9399C14.1644 20.8925 14.3141 20.8347 14.4653 20.7813C14.6165 20.728 14.7884 20.6702 14.9462 20.605C15.1041 20.5397 15.259 20.4634 15.4146 20.3901C15.5569 20.3226 15.6999 20.2589 15.84 20.1848C16.0052 20.0966 16.1646 19.9995 16.3247 19.9032C16.4455 19.8291 16.567 19.7616 16.6848 19.6809C16.8582 19.5668 17.0242 19.443 17.1902 19.3192C17.2866 19.2451 17.3843 19.1784 17.4785 19.1028C17.6541 18.962 17.8209 18.8123 17.9876 18.6582C18.0484 18.6026 18.1136 18.5537 18.1736 18.4959C18.1795 18.4907 18.1818 18.4818 18.1877 18.4759C20.2247 16.5249 21.3761 13.8264 21.3751 11.0058C21.3849 5.2758 16.7476 0.622858 11.0176 0.613174ZM18.2434 16.1467C17.7678 13.9285 16.3072 12.048 14.2756 11.0384C15.9363 9.22938 15.816 6.4166 14.007 4.7559C12.1979 3.09521 9.38521 3.21549 7.72451 5.02451C6.1633 6.7252 6.1633 9.33776 7.72451 11.0384C5.69299 12.048 4.23234 13.9285 3.75678 16.1467C0.90978 12.1541 1.83841 6.60957 5.83099 3.76257C7.33966 2.68677 9.14712 2.10991 11.0001 2.11286C15.9038 2.10504 19.8853 6.07391 19.8931 10.9776C19.896 12.8305 19.3192 14.638 18.2434 16.1467Z"/>
</svg>