<svg data-v-152f244c="" width="24" height="24" viewBox="0 0 24 24" fill="none" xmlns="http://www.w3.org/2000/svg"><rect data-v-152f244c="" width="24" height="24" rx="12" fill="#EAEAEA"></rect><path data-v-152f244c="" d="M8 12H10L7.34375 14.6562L4.65625 12H6.65625C6.65625 10.5417 7.17708 9.29167 8.21875 8.25C9.28125 7.1875 10.5417 6.65625 12 6.65625C13.0417 6.65625 13.9896 6.9375 14.8438 7.5L13.875 8.46875C13.3125 8.15625 12.6875 8 12 8C10.8958 8 9.94792 8.39583 9.15625 9.1875C8.38542 9.95833 8 10.8958 8 12ZM16.6562 9.34375L19.3438 12H17.3438C17.3438 13.4583 16.8125 14.7188 15.75 15.7812C14.7083 16.8229 13.4583 17.3438 12 17.3438C10.9583 17.3438 10.0104 17.0625 9.15625 16.5L10.125 15.5312C10.6875 15.8438 11.3125 16 12 16C13.1042 16 14.0417 15.6146 14.8125 14.8438C15.6042 14.0521 16 13.1042 16 12H14L16.6562 9.34375Z" fill="black"></path></svg>