<svg width="24" height="24" viewBox="0 0 24 24" fill="none" xmlns="http://www.w3.org/2000/svg">
    <path d="M0 12C0 5.37258 5.37258 0 12 0C18.6274 0 24 5.37258 24 12C24 18.6274 18.6274 24 12 24C5.37258 24 0 18.6274 0 12Z" fill="url(#paint0_linear)"/>
    <path d="M10.0938 9.625C9.83556 9.625 9.625 9.83512 9.625 10.0938C9.625 10.3524 9.83556 10.5625 10.0938 10.5625C10.3519 10.5625 10.5625 10.3524 10.5625 10.0938C10.5625 9.83512 10.3519 9.625 10.0938 9.625Z" fill="black"/>
    <path d="M13.9062 13.4375C13.6481 13.4375 13.4375 13.6476 13.4375 13.9062C13.4375 14.1649 13.6481 14.375 13.9062 14.375C14.1644 14.375 14.375 14.1649 14.375 13.9062C14.375 13.6476 14.1644 13.4375 13.9062 13.4375Z" fill="black"/>
    <path d="M12.0312 4C7.63763 4 4 7.57469 4 11.9688C4 16.3628 7.63763 20 12.0312 20C16.4249 20 20 16.3628 20 11.9688C20 7.57469 16.4249 4 12.0312 4ZM12.0312 18.1313C8.67125 18.1313 5.86875 15.3287 5.86875 11.9688C5.86875 8.60875 8.67125 5.86875 12.0312 5.86875C15.3912 5.86875 18.1313 8.60875 18.1313 11.9688C18.1313 15.3287 15.3912 18.1313 12.0312 18.1313Z" fill="black"/>
    <path d="M12.0312 6.8125C9.18853 6.8125 6.8125 9.12559 6.8125 11.9688C6.8125 14.8119 9.18853 17.1875 12.0312 17.1875C14.874 17.1875 17.1875 14.8119 17.1875 11.9688C17.1875 9.12559 14.874 6.8125 12.0312 6.8125ZM8.6875 10.0938C8.6875 9.31831 9.31831 8.6875 10.0938 8.6875C10.8692 8.6875 11.5 9.31831 11.5 10.0938C11.5 10.8692 10.8692 11.5 10.0938 11.5C9.31831 11.5 8.6875 10.8692 8.6875 10.0938ZM10.4837 15.1038C10.3386 15.3208 10.0472 15.3761 9.83372 15.2338C9.61856 15.09 9.55997 14.7993 9.70372 14.5837L13.5162 8.89622C13.6609 8.68016 13.952 8.62341 14.1663 8.76622C14.3814 8.90997 14.44 9.20063 14.2963 9.41625L10.4837 15.1038ZM13.9062 15.3125C13.1308 15.3125 12.5 14.6817 12.5 13.9062C12.5 13.1308 13.1308 12.5 13.9062 12.5C14.6817 12.5 15.3125 13.1308 15.3125 13.9062C15.3125 14.6817 14.6817 15.3125 13.9062 15.3125Z" fill="black"/>
    <defs>
        <linearGradient id="paint0_linear" x1="12" y1="0" x2="12" y2="24" gradientUnits="userSpaceOnUse">
            <stop stop-color="#F2EA20"/>
            <stop offset="1" stop-color="#EA7912"/>
        </linearGradient>
    </defs>
</svg>
