<svg width="547" height="71" viewBox="0 0 547 71" fill="none" xmlns="http://www.w3.org/2000/svg">
    <path fill-rule="evenodd" clip-rule="evenodd"
          d="M341.379 0.702527C314.155 6.50253 313.598 35.4975 340.588 41.8675C345.509 43.0285 351.215 44.3865 353.268 44.8855C358.798 46.2285 360.125 49.3895 356.477 52.5275C352.635 55.8325 341.654 55.3225 332.035 51.3915C324.533 48.3265 324.601 48.2885 321.597 57.1545C319.371 63.7245 319.186 63.4465 328.024 66.7955C352.653 76.1285 376.535 66.9405 376.535 48.1335C376.535 36.5075 372.034 32.1985 356.222 28.6895C342.741 25.6965 341.889 25.3905 340.279 22.9655C335.758 16.1565 352.957 13.0385 364.337 18.6045C369.962 21.3555 369.422 21.6695 372.471 13.8875L374.878 7.74653L372.319 5.73353C366.799 1.39053 350.55 -1.25047 341.379 0.702527ZM386.035 68.7245H435.035V54.7245H404.035V41.7245H433.035V27.7245H404.035V15.7245H435.035V0.724527H386.035V68.7245ZM443.035 68.7245H491.035V53.7245H462.035V0.724527H443.035V68.7245ZM498.035 68.7245H546.035V53.7245H517.035V0.724527H498.035V68.7245Z"
          fill="#18A052"/>
    <path fill-rule="evenodd" clip-rule="evenodd"
          d="M67.1868 0.983226C67.1868 1.24923 73.7278 11.8732 81.7238 24.5922L96.2598 47.7182L91.2238 57.5242C88.4528 62.9172 86.1868 67.6092 86.1868 67.9512C86.1868 68.2932 90.5028 68.4442 95.7778 68.2862L105.369 68.0002L122.383 35.5002C131.741 17.6252 139.63 2.42123 139.914 1.71223C140.318 0.704225 138.316 0.487225 130.671 0.712226L120.911 1.00023L105.381 30.7672L102.963 26.8842C101.633 24.7482 97.4328 17.9382 93.6278 11.7502L86.7108 0.500226H76.9488C71.5798 0.500226 67.1868 0.717225 67.1868 0.983226ZM143.187 68.5002H237.187V0.500226H219.187V53.5002H199.187V0.500226H181.187V53.5002H161.187V0.500226H143.187V68.5002ZM249.187 68.5002H262.985L292.687 31.0182L293.231 68.5002H310.187V0.500226H296.66L266.187 38.8212V0.500226H249.187V68.5002Z"
          fill="#E30613"/>
    <path fill-rule="evenodd" clip-rule="evenodd"
          d="M27.0267 1.15531C-10.7483 9.95031 -8.22334 64.3583 30.2087 69.7323C45.1228 71.8182 57 66 65.8398 55.8371C64.301 54.3403 64.3341 54.2862 64.3261 54.2392C64.3185 54.1951 64.2745 54.1572 62.8547 52.9333C58.6328 49.2942 56.7589 47.6582 55.4314 47.4237C51.4085 52.6398 45.0967 56 38 56C25.8497 56 16 46.1503 16 34C16 28.5864 17.9554 23.6295 21.1983 19.797C19.9678 19.067 19.1429 17.7251 19.1429 16.1905C19.1429 13.8761 21.019 12 23.3333 12C25.1539 12 26.7034 13.161 27.2816 14.7831C30.4531 13.0104 34.1085 12 38 12C41.8915 12 45.5469 13.0104 48.7184 14.7831C49.2966 13.161 50.8461 12 52.6667 12C54.981 12 56.8571 13.8761 56.8571 16.1905C56.8571 17.7251 56.0322 19.067 54.8017 19.797C55.3625 20.4598 55.8848 21.1561 56.3651 21.8827L67.3087 12.4143L63.0847 8.66731C59.5742 4.49664 47.448 -2.84469 27.0267 1.15531Z"
          fill="#E30613"/>
    <path d="M30.1426 25.59C29.8906 25.339 29.9816 24.653 30.3446 24.067C31.1426 22.776 33.8856 22.641 33.8856 23.893C33.8856 24.907 30.8396 26.288 30.1426 25.59Z"
          fill="#E30613"/>
    <path d="M43.8856 25.29C42.7856 25.002 41.8856 24.369 41.8856 23.883C41.8856 23.398 42.7856 23 43.8856 23C44.9856 23 45.8856 23.633 45.8856 24.406C45.8856 25.32 45.1856 25.63 43.8856 25.29Z"
          fill="#E30613"/>
    <path d="M34.6988 36.9998C31.6988 36.9998 31.1988 33.4998 33.1988 32.607C35.1988 31.9998 39.9856 31.717 42.3036 32.607C44.7336 33.539 43.6988 36.9998 40.6988 36.9998C38.6988 36.9998 38.9248 38.5308 38.6988 40.4998C38.6988 43.589 40.6988 42.9998 45.1988 41.9998C47.1988 41.4998 45.6988 42.4998 44.1988 42.9998C41.1988 43.9998 39.5386 44.223 37.6988 44.4998C34.1988 44.4998 31.6988 43.7318 31.6988 43.4998C31.6988 43.2679 32.6988 43.4998 34.1988 43.4998C36.512 43.4998 36.8856 43.568 36.8856 40.608C36.8856 37.648 36.3648 36.9998 34.6988 36.9998Z"
          fill="#E30613"/>
    <path d="M35 28.5C35 29.3284 34.3284 30 33.5 30C32.6716 30 32 29.3284 32 28.5C32 27.6716 32.6716 27 33.5 27C34.3284 27 35 27.6716 35 28.5Z"
          fill="#E30613"/>
    <path d="M44 28.5C44 29.3284 43.3284 30 42.5 30C41.6716 30 41 29.3284 41 28.5C41 27.6716 41.6716 27 42.5 27C43.3284 27 44 27.6716 44 28.5Z"
          fill="#E30613"/>
</svg>
