<svg xmlns:dc="http://purl.org/dc/elements/1.1/" xmlns:cc="http://creativecommons.org/ns#" xmlns:rdf="http://www.w3.org/1999/02/22-rdf-syntax-ns#" xmlns:svg="http://www.w3.org/2000/svg" xmlns="http://www.w3.org/2000/svg" xmlns:sodipodi="http://sodipodi.sourceforge.net/DTD/sodipodi-0.dtd" xmlns:inkscape="http://www.inkscape.org/namespaces/inkscape" fill="#000000" viewBox="0 0 48 48" width="48px" height="48px" version="1.1" id="svg533" sodipodi:docname="icons8-телеграмма-app.svg" inkscape:version="0.92.5 (2060ec1f9f, 2020-04-08)">
    <metadata id="metadata539">
        <rdf:RDF>
            <cc:Work rdf:about="">
                <dc:format>image/svg+xml</dc:format>
                <dc:type rdf:resource="http://purl.org/dc/dcmitype/StillImage"/>
            </cc:Work>
        </rdf:RDF>
    </metadata>
    <defs id="defs537"/>
    <sodipodi:namedview pagecolor="#ffffff" bordercolor="#666666" borderopacity="1" objecttolerance="10" gridtolerance="10" guidetolerance="10" inkscape:pageopacity="0" inkscape:pageshadow="2" inkscape:window-width="1920" inkscape:window-height="1055" id="namedview535" showgrid="false" inkscape:zoom="4.9166667" inkscape:cx="24.610169" inkscape:cy="24" inkscape:window-x="0" inkscape:window-y="0" inkscape:window-maximized="1" inkscape:current-layer="svg533"/>
    <path d="M5.83,23.616c12.568-5.529,28.832-12.27,31.077-13.203c5.889-2.442,7.696-1.974,6.795,3.434 c-0.647,3.887-2.514,16.756-4.002,24.766c-0.883,4.75-2.864,5.313-5.979,3.258c-1.498-0.989-9.059-5.989-10.7-7.163 c-1.498-1.07-3.564-2.357-0.973-4.892c0.922-0.903,6.966-6.674,11.675-11.166c0.617-0.59-0.158-1.559-0.87-1.086 c-6.347,4.209-15.147,10.051-16.267,10.812c-1.692,1.149-3.317,1.676-6.234,0.838c-2.204-0.633-4.357-1.388-5.195-1.676 C1.93,26.43,2.696,24.995,5.83,23.616z" id="path531" style="fill:#ffffff"/>
</svg>